<?xml version="1.0" standalone="no"?>
<!DOCTYPE svg PUBLIC "-//W3C//DTD SVG 20010904//EN"
 "http://www.w3.org/TR/2001/REC-SVG-20010904/DTD/svg10.dtd">
<svg version="1.0" xmlns="http://www.w3.org/2000/svg"
 width="256.000000pt" height="256.000000pt" viewBox="0 0 256.000000 256.000000"
 preserveAspectRatio="xMidYMid meet">

<g transform="translate(0.000000,256.000000) scale(0.100000,-0.100000)"
fill="#000000" stroke="none">
<path d="M355 2308 c-3 -7 -4 -452 -3 -988 l3 -975 533 -3 c435 -2 532 0 532
11 0 7 -9 32 -20 55 -28 59 -50 148 -50 207 0 119 60 255 153 346 31 31 57 59
57 62 0 4 -241 7 -535 7 l-535 0 0 585 0 585 703 -2 702 -3 1 -550 1 -549 59
-18 c32 -10 62 -18 67 -18 4 0 6 282 5 628 l-3 627 -833 3 c-661 2 -834 0
-837 -10z"/>
<path d="M694 1921 c-65 -28 -83 -110 -35 -163 24 -27 36 -33 71 -33 35 0 47
6 71 33 20 22 29 43 29 67 0 65 -78 120 -136 96z"/>
<path d="M1186 1554 c-136 -200 -184 -264 -198 -262 -10 2 -52 54 -95 118 -43
63 -85 116 -94 118 -10 2 -54 -55 -133 -173 -94 -142 -115 -179 -105 -191 10
-12 109 -14 636 -14 555 0 624 2 630 16 3 9 -17 49 -54 102 -33 48 -131 192
-217 320 -101 148 -164 232 -174 232 -11 -1 -85 -101 -196 -266z"/>
<path d="M1687 966 c-304 -127 -316 -547 -19 -693 51 -25 67 -28 162 -28 94 0
111 3 160 27 76 37 146 109 184 188 27 58 31 75 31 155 0 80 -4 97 -32 157
-38 81 -102 146 -181 185 -48 24 -71 28 -152 31 -82 2 -103 -1 -153 -22z m261
-112 c110 -55 170 -179 142 -294 -7 -28 -16 -52 -20 -55 -9 -5 -387 304 -391
320 -1 6 17 20 41 33 64 32 158 31 228 -4z m-144 -294 c187 -154 188 -154 166
-172 -30 -24 -84 -38 -151 -38 -148 0 -273 142 -256 291 7 60 23 92 41 82 7
-5 97 -78 200 -163z"/>
</g>
</svg>
